# xmcd
#
# Track frame offsets: 
#        150
#        12436
#        28115
#        47346
#        72490
#        91747
#        97056
#        118106
#        133629
#        136945
#        155654
#        160981
#        179379
#        199286
#        213620
#        231999
#        246905
#        270187
#        293115
#
# Disc length: 3935 seconds
#
# Revision: 0
# Processed by: cddbd v1.5.2PL0 Copyright (c) Steve Scherf et al.
# Submitted via: ExactAudioCopy v1.5
#
DISCID=180f5d13
DTITLE=55 Alkis - Code Alk
DYEAR=2006
DGENRE=Rap
TTITLE0=In dem Shaizz
TTITLE1=Nikk mit dem Kopf
TTITLE2=Bling Bling
TTITLE3=Groupies feat. Mo
TTITLE4=Bastard Move
TTITLE5=Kann nicht ohne Smash Skit
TTITLE6=Lil Stereo feat. Marlon B
TTITLE7=Fuck mein Shaizz nich ab
TTITLE8=Geh einfach weg
TTITLE9=Unten im Club
TTITLE10=Versaut Skit
TTITLE11=Versaut feat. Mo
TTITLE12=Auf was achtest du
TTITLE13=Der Auftritt
TTITLE14=Das Leben is nich hart
TTITLE15=Mumi
TTITLE16=Werd wach
TTITLE17=Alki Baby
TTITLE18=Outro
EXTD=
EXTT0=
EXTT1=
EXTT2=
EXTT3=
EXTT4=
EXTT5=
EXTT6=
EXTT7=
EXTT8=
EXTT9=
EXTT10=
EXTT11=
EXTT12=
EXTT13=
EXTT14=
EXTT15=
EXTT16=
EXTT17=
EXTT18=
PLAYORDER=
